<svg version="1.1" id="Uploaded to svgrepo.com" xmlns="http://www.w3.org/2000/svg" width="71" height="71" viewBox="0 0 2.84 2.84" xml:space="preserve"><style>.isometric_acht{fill:#f05a28}.isometric_negen{fill:#be1e2d}.isometric_twaalf{fill:#569080}</style><path class="isometric_twaalf" d="m.887 1.807.532-.305"/><path class="isometric_acht" d="m.355 1.501.532-.306.532.307-.532.305z"/><path class="isometric_negen" d="m.887 2.485.532-.307v-.676l-.532.305z"/><path class="isometric_twaalf" d="m.887 1.807.532-.305"/><path class="isometric_acht" d="m.355 1.501.532-.306.532.307-.532.305z"/><path class="isometric_negen" d="m.887 2.485.532-.307v-.676l-.532.305z"/><path style="fill:#ff7344" d="m.887 2.485-.532-.307v-.676l.532.305z"/><path class="isometric_twaalf" d="m1.952 1.809.529-.307"/><path style="fill:#f28103" d="m1.42 1.502.529-.308.532.307-.529.308z"/><path style="fill:#f29227" d="m1.952 2.485-.532-.307v-.676l.532.307z"/><path class="isometric_acht" d="m1.952 2.485.529-.307v-.676l-.529.307z"/><path class="isometric_twaalf" d="M1.42.827 1.949.52"/><path style="fill:#72c0ab" d="m.887.521.536-.307.526.307-.529.306z"/><path class="isometric_twaalf" d="m1.42 1.502.529-.308V.521L1.42.827z"/><path style="fill:#7bd6c4" d="m1.42 1.502-.532-.307V.521l.532.307z"/></svg>