<svg width="93" height="64" viewBox="0 0 93 64" fill="none" xmlns="http://www.w3.org/2000/svg">
<path d="M8.09507 0H60.8809V5.29511H65.6558V14.3427H71.2142V23.3902H65.6558V29.3107H60.8809V34.6476H65.6558V39.9427H67.8941V43.3616H65.6558V48.6984H71.2142V55.2443H57.3742L60.8809 64H40.5126L43.1239 55.2443H8.09507V0Z" fill="#2665F1"/>
<rect x="67.5956" y="1.7511" width="2.76053" height="3.3355" fill="#2665F1"/>
<rect x="71.6245" y="5.08655" width="5.74489" height="6.33746" fill="#2665F1"/>
<rect x="78.787" y="25.6833" width="5.74489" height="6.33746" fill="#2665F1"/>
<rect x="69.5355" y="29.9362" width="5.74489" height="6.33746" fill="#2665F1"/>
<rect x="81.6221" y="38.3583" width="3.3574" height="3.16873" fill="#2665F1"/>
<rect x="77.3694" y="43.4449" width="3.3574" height="3.16873" fill="#2665F1"/>
<rect x="77.3694" y="15.3433" width="4.25271" height="4.50293" fill="#2665F1"/>
<rect x="74.4597" y="48.2814" width="4.25271" height="4.50293" fill="#2665F1"/>
<rect x="84.5319" y="50.533" width="4.25271" height="4.50293" fill="#2665F1"/>
<rect x="72.3707" y="21.514" width="3.13357" height="3.41889" fill="#2665F1"/>
</svg>
